# xmcd
#
# Track frame offsets: 
# 150
# 18448
# 38425
# 48990
# 66909
# 82973
# 99651
# 117431
# 136007
# 159560
#
# Disc length: 2369 seconds
# Submitted via: tkcNetwork 1.0
# Revision: 0
# Processed by: cddbd v1.5.1PL0 Copyright (c) Steve Scherf et al.
#
DISCID=76093f0a
DTITLE=Kevin Rees - Redshift
DYEAR=1900
DGENRE=
TTITLE0=Redshift
TTITLE1=Evensong
TTITLE2=Urgh
TTITLE3=Afterwords
TTITLE4=Ancestors
TTITLE5=Orrery
TTITLE6=Z Shift
TTITLE7=A Tale Worth Telling
TTITLE8=Destiny
TTITLE9=Worlds Apart
EXTD=
EXTT0=
EXTT1=
EXTT2=
EXTT3=
EXTT4=
EXTT5=
EXTT6=
EXTT7=
EXTT8=
EXTT9=
PLAYORDER=
